<svg height="512pt" viewBox="-3 0 512 512" width="512pt" xmlns="http://www.w3.org/2000/svg"><path d="m376.5 401.667969c-30.417969 0-55.167969 24.746093-55.167969 55.164062 0 30.421875 24.75 55.167969 55.167969 55.167969 30.421875 0 55.167969-24.746094 55.167969-55.167969 0-30.417969-24.746094-55.164062-55.167969-55.164062zm0 0" fill="#008186"/><path d="m494.925781 97.148438c-9.492187-10.84375-23.019531-16.816407-38.09375-16.816407h-377.566406c-8.28125 0-15 6.71875-15 15 0 8.285157 6.71875 15 15 15h2l28.152344 211.144531c-7.347657.972657-13.019531 7.246094-13.019531 14.855469 0 8.285157 6.714843 15 15 15h313.300781c14.320312 0 28.457031-5.472656 39.808593-15.40625 11.347657-9.9375 18.640626-23.230469 20.535157-37.425781l21.511719-161.367188c1.996093-14.941406-2.136719-29.144531-11.628907-39.984374zm0 0" fill="#ff9f00"/><path d="m494.929688 97.148438c-9.492188-10.84375-23.023438-16.816407-38.097657-16.816407h-163.34375v271h131.210938c14.320312 0 28.460937-5.472656 39.808593-15.40625 11.351563-9.9375 18.644532-23.230469 20.535157-37.425781l21.515625-161.367188c1.992187-14.941406-2.136719-29.140624-11.628906-39.984374zm0 0" fill="#e47500"/><path d="m199.765625 401.667969c-30.417969 0-55.164063 24.746093-55.164063 55.164062 0 30.421875 24.746094 55.167969 55.164063 55.167969s55.167969-24.746094 55.167969-55.167969c0-30.417969-24.75-55.164062-55.167969-55.164062zm0 0" fill="#00acb3"/><path d="m464.867188 431.667969h-302.589844c-14.324219 0-28.460938-5.472657-39.808594-15.410157-11.351562-9.9375-18.644531-23.226562-20.535156-37.421874l-42.9375-322.039063c-2.214844-16.621094-12.40625-26.796875-17.21875-26.796875h-26.777344c-8.285156 0-15-6.714844-15-15s6.714844-15 15-15h26.777344c22.378906 0 43.003906 23.207031 46.957031 52.832031l42.933594 322.035157c1.9375 14.527343 15.953125 26.800781 30.605469 26.800781h302.589843c8.285157 0 15 6.714843 15 15 .003907 8.28125-6.710937 15-14.996093 15zm0 0" fill="#a8ebfa"/><path d="m464.867188 401.667969h-171.378907v30h171.378907c8.285156 0 15-6.71875 15-15 0-8.285157-6.714844-15-15-15zm0 0" fill="#76e2f8"/><path d="m388.335938 169.953125c-2.3125-5.617187-7.792969-9.285156-13.871094-9.285156h-26.707032v-145.667969c0-8.285156-6.714843-15-15-15h-80.332031c-8.285156 0-15 6.714844-15 15v145.667969h-24.917969c-6.078124 0-11.554687 3.667969-13.867187 9.285156-2.316406 5.621094-1.011719 12.082031 3.304687 16.363281l80.976563 80.332032c2.925781 2.902343 6.742187 4.351562 10.566406 4.351562 3.820313 0 7.640625-1.449219 10.5625-4.351562l80.980469-80.332032c4.3125-4.28125 5.617188-10.742187 3.304688-16.363281zm0 0" fill="#54e360"/><path d="m388.335938 169.953125c-2.3125-5.617187-7.792969-9.285156-13.871094-9.285156h-26.707032v-145.667969c0-8.285156-6.714843-15-15-15h-39.269531v271c3.816407 0 7.640625-1.449219 10.5625-4.351562l80.980469-80.332032c4.3125-4.28125 5.617188-10.742187 3.304688-16.363281zm0 0" fill="#00ab5e"/></svg>